<?xml version="1.0" encoding="UTF-8"?><svg id="a" xmlns="http://www.w3.org/2000/svg" viewBox="0 0 785.28 678.4"><path d="M737.09,232.76c-29.77-29.78-70.9-48.19-116.33-48.19-102.29,0-185.21,82.93-185.21,185.22v308.61h20.41c90.94,0,173.26-36.86,232.86-96.45,59.6-59.6,96.46-141.93,96.46-232.86,0-45.43-18.42-86.56-48.19-116.33ZM610.41,449.3c-48.73,0-88.24-39.51-88.24-88.24s39.51-88.24,88.24-88.24,88.24,39.5,88.24,88.24-39.5,88.24-88.24,88.24Z" fill="#39b54a"/><path d="M347.07,62.56C308.42,23.91,255.02,0,196.03,0,87.77,0,0,87.76,0,196.02v72.75c0,226.23,183.4,409.63,409.64,409.63V213.61c0-58.99-23.91-112.39-62.57-151.05ZM204.82,339.2c-69.1,0-125.12-56.02-125.12-125.13s56.02-125.12,125.12-125.12,125.13,56.02,125.13,125.12-56.02,125.13-125.13,125.13Z" fill="#39b54a"/></svg>